# xmcd
#
# Track frame offsets: 
#        150
#        29845
#        59523
#        85315
#        115480
#        136707
#        168827
#        192529
#        227311
#        246583
#        267140
#        308484
#
# Disc length: 4701 seconds
#
# Revision: 4
# Processed by: cddbd v1.5.2PL0 Copyright (c) Steve Scherf et al.
# Submitted via: ExactAudioCopyFreeDBPlugin 1.0
#
DISCID=a3125b0c
DTITLE=Various Artist - Philly ReGrooved: Tom Moulton Remixes
DYEAR=2010
DGENRE=Soul
TTITLE0=Ultra High Frequency - We're on the Right Track (ft Ben Aiken)
TTITLE1=First Choice - Armed and Extremely Dangerous
TTITLE2=The Delfonics - I Told You So
TTITLE3=First Choice - This is the House
TTITLE4=Nat Turner - Ruby Lee (ft Major Harris)
TTITLE5=The Philly Groove Orchestra - Let Us Entertain You (ft First C
TTITLE5=hoice)
TTITLE6=Finishing Touch - Second Best (Is Never Enough)
TTITLE7=First Choice - Gotta Get Away
TTITLE8=Tapestry - Big Stone Wall (Around Your Heart)
TTITLE9=First Choice - Gonna Keep on Lovin' Him
TTITLE10=Finishing Touch - Don't Put Me Down
TTITLE11=Heaven 'n Hell - Whatcha Gonna Do
EXTD=
EXTT0=
EXTT1=
EXTT2=
EXTT3=
EXTT4=
EXTT5=
EXTT6=
EXTT7=
EXTT8=
EXTT9=
EXTT10=
EXTT11=
PLAYORDER=
